<svg width="1440" height="1024" viewBox="0 0 1440 1024" fill="none" xmlns="http://www.w3.org/2000/svg">
<g clip-path="url(#clip0_33_222)">
<rect width="1440" height="1024" fill="#4A0080"/>
<path d="M803 1H1443V1028H803V1Z" fill="white"/>
<rect x="3" y="1" width="800" height="1024" fill="#4A0080"/>
<path d="M673 1H803V257V548.5V821.5V1025H598C598 1025 628.197 869.777 635.5 769C642.726 669.287 628.274 612.713 635.5 513C642.803 412.223 665.697 357.777 673 257C680.226 157.287 673 1 673 1Z" fill="url(#paint0_linear_33_222)"/>
<path d="M321 1025H451C451 1025 493.964 870.576 505 769C516.979 658.74 497.775 595.673 505 485C510.841 395.529 521.993 346.102 532 257C543.22 157.099 559 1 559 1H246C246 1 276.197 156.223 283.5 257C290.726 356.713 276.274 413.287 283.5 513C290.803 613.777 313.697 668.223 321 769C328.226 868.713 321 1025 321 1025Z" fill="url(#paint1_linear_33_222)"/>
<path d="M3.00011 1H131.361C131.361 1 173.784 155.424 184.681 257C196.509 367.26 177.547 430.327 184.681 541C190.448 630.471 201.459 679.899 211.34 769C222.419 868.901 238 1025 238 1025H3L3.00011 769V515.493V257V1Z" fill="url(#paint2_linear_33_222)"/>
<path d="M218 132C190 137.5 192.5 142.5 188 162C184.5 142.5 184 135.5 158 132C182 130 184 129 188 102C192.5 128.5 190 130.5 218 132Z" fill="#D83482"/>
<path d="M218 883C190 877.683 192.5 872.85 188 854C184.5 872.85 184 879.617 158 883C182 884.933 184 885.9 188 912C192.5 886.383 190 884.45 218 883Z" fill="#D83482"/>
<path d="M772 62C744 67.5 746.5 72.5 742 92C738.5 72.5 738 65.5 712 62C736 60 738 59 742 32C746.5 58.5 744 60.5 772 62Z" fill="#D83482"/>
<path d="M772 951.5C744 946.092 746.5 941.175 742 922C738.5 941.175 738 948.058 712 951.5C736 953.467 738 954.45 742 981C746.5 954.942 744 952.975 772 951.5Z" fill="#D83482"/>
<path d="M112 192C84 197.5 86.5 202.5 82 222C78.5 202.5 78 195.5 52 192C76 190 78 189 82 162C86.5 188.5 84 190.5 112 192Z" fill="#D83482"/>
<path d="M112 824C84 818.5 86.5 813.5 82 794C78.5 813.5 78 820.5 52 824C76 826 78 827 82 854C86.5 827.5 84 825.5 112 824Z" fill="#D83482"/>
<path d="M772 192C744 197.5 746.5 202.5 742 222C738.5 202.5 738 195.5 712 192C736 190 738 189 742 162C746.5 188.5 744 190.5 772 192Z" fill="#D83482"/>
<path d="M772 824C744 818.5 746.5 813.5 742 794C738.5 813.5 738 820.5 712 824C736 826 738 827 742 854C746.5 827.5 744 825.5 772 824Z" fill="#D83482"/>
<path d="M112 62C84 67.5 86.5 72.5 82 92C78.5 72.5 78 65.5 52 62C76 60 78 59 82 32C86.5 58.5 84 60.5 112 62Z" fill="#D83482"/>
<path d="M112 951.5C84 946.092 86.5 941.175 82 922C78.5 941.175 78 948.058 52 951.5C76 953.467 78 954.45 82 981C86.5 954.942 84 952.975 112 951.5Z" fill="#D83482"/>
<path d="M648 132C620 137.5 622.5 142.5 618 162C614.5 142.5 614 135.5 588 132C612 130 614 129 618 102C622.5 128.5 620 130.5 648 132Z" fill="#D83482"/>
<path d="M648 883C620 877.683 622.5 872.85 618 854C614.5 872.85 614 879.617 588 883C612 884.933 614 885.9 618 912C622.5 886.383 620 884.45 648 883Z" fill="#D83482"/>
<path d="M433 132C405 137.5 407.5 142.5 403 162C399.5 142.5 399 135.5 373 132C397 130 399 129 403 102C407.5 128.5 405 130.5 433 132Z" fill="#D83482"/>
<path d="M433 883C405 877.683 407.5 872.85 403 854C399.5 872.85 399 879.617 373 883C397 884.933 399 885.9 403 912C407.5 886.383 405 884.45 433 883Z" fill="#D83482"/>
<path d="M332 62C304 67.5 306.5 72.5 302 92C298.5 72.5 298 65.5 272 62C296 60 298 59 302 32C306.5 58.5 304 60.5 332 62Z" fill="#D83482"/>
<path d="M332 951.5C304 946.092 306.5 941.175 302 922C298.5 941.175 298 948.058 272 951.5C296 953.467 298 954.45 302 981C306.5 954.942 304 952.975 332 951.5Z" fill="#D83482"/>
<path d="M552 62C524 67.5 526.5 72.5 522 92C518.5 72.5 518 65.5 492 62C516 60 518 59 522 32C526.5 58.5 524 60.5 552 62Z" fill="#D83482"/>
<path d="M552 951.5C524 946.092 526.5 941.175 522 922C518.5 941.175 518 948.058 492 951.5C516 953.467 518 954.45 522 981C526.5 954.942 524 952.975 552 951.5Z" fill="#D83482"/>
</g>
<rect x="0.5" y="0.5" width="1439" height="1023" stroke="black"/>
<defs>
<linearGradient id="paint0_linear_33_222" x1="754.5" y1="1" x2="754.5" y2="1025" gradientUnits="userSpaceOnUse">
<stop stop-color="#4A0080" stop-opacity="0.52"/>
<stop offset="1" stop-color="#1C0152" stop-opacity="0"/>
</linearGradient>
<linearGradient id="paint1_linear_33_222" x1="402.5" y1="1025" x2="402.5" y2="1" gradientUnits="userSpaceOnUse">
<stop stop-color="#1C0152" stop-opacity="0.1"/>
<stop offset="1" stop-color="#1C0152" stop-opacity="0"/>
</linearGradient>
<linearGradient id="paint2_linear_33_222" x1="83.4729" y1="1" x2="83.4729" y2="1025" gradientUnits="userSpaceOnUse">
<stop stop-color="#4A0080" stop-opacity="0.65"/>
<stop offset="1" stop-color="#1C0152" stop-opacity="0"/>
</linearGradient>
<clipPath id="clip0_33_222">
<rect width="1440" height="1024" fill="white"/>
</clipPath>
</defs>
</svg>
