<svg width="803" height="1028" viewBox="0 0 803 1028" fill="none" xmlns="http://www.w3.org/2000/svg">
<rect x="3" width="800" height="1024" fill="#4A0080"/>
<path d="M673 0H803V256V547.5V820.5V1024H598C598 1024 628.197 868.777 635.5 768C642.726 668.287 628.274 611.713 635.5 512C642.803 411.223 665.697 356.777 673 256C680.226 156.287 673 0 673 0Z" fill="url(#paint0_linear_17_201)"/>
<path d="M321 1024H451C451 1024 493.964 869.576 505 768C516.979 657.74 497.775 594.673 505 484C510.841 394.529 521.993 345.102 532 256C543.22 156.099 559 0 559 0H246C246 0 276.197 155.223 283.5 256C290.726 355.713 276.274 412.287 283.5 512C290.803 612.777 313.697 667.223 321 768C328.226 867.713 321 1024 321 1024Z" fill="url(#paint1_linear_17_201)"/>
<path d="M3.00011 0H131.361C131.361 0 173.784 154.424 184.681 256C196.509 366.26 177.547 429.327 184.681 540C190.448 629.471 201.459 678.898 211.34 768C222.419 867.901 238 1024 238 1024H3L3.00011 768V514.493V256V0Z" fill="url(#paint2_linear_17_201)"/>
<path d="M218 131C190 136.5 192.5 141.5 188 161C184.5 141.5 184 134.5 158 131C182 129 184 128 188 101C192.5 127.5 190 129.5 218 131Z" fill="#D83482"/>
<path d="M218 882C190 876.683 192.5 871.85 188 853C184.5 871.85 184 878.617 158 882C182 883.933 184 884.9 188 911C192.5 885.383 190 883.45 218 882Z" fill="#D83482"/>
<path d="M772 61C744 66.5 746.5 71.5 742 91C738.5 71.5 738 64.5 712 61C736 59 738 58 742 31C746.5 57.5 744 59.5 772 61Z" fill="#D83482"/>
<path d="M772 950.5C744 945.092 746.5 940.175 742 921C738.5 940.175 738 947.058 712 950.5C736 952.467 738 953.45 742 980C746.5 953.942 744 951.975 772 950.5Z" fill="#D83482"/>
<path d="M112 191C84 196.5 86.5 201.5 82 221C78.5 201.5 78 194.5 52 191C76 189 78 188 82 161C86.5 187.5 84 189.5 112 191Z" fill="#D83482"/>
<path d="M112 823C84 817.5 86.5 812.5 82 793C78.5 812.5 78 819.5 52 823C76 825 78 826 82 853C86.5 826.5 84 824.5 112 823Z" fill="#D83482"/>
<path d="M772 191C744 196.5 746.5 201.5 742 221C738.5 201.5 738 194.5 712 191C736 189 738 188 742 161C746.5 187.5 744 189.5 772 191Z" fill="#D83482"/>
<path d="M772 823C744 817.5 746.5 812.5 742 793C738.5 812.5 738 819.5 712 823C736 825 738 826 742 853C746.5 826.5 744 824.5 772 823Z" fill="#D83482"/>
<path d="M112 61C84 66.5 86.5 71.5 82 91C78.5 71.5 78 64.5 52 61C76 59 78 58 82 31C86.5 57.5 84 59.5 112 61Z" fill="#D83482"/>
<path d="M112 950.5C84 945.092 86.5 940.175 82 921C78.5 940.175 78 947.058 52 950.5C76 952.467 78 953.45 82 980C86.5 953.942 84 951.975 112 950.5Z" fill="#D83482"/>
<path d="M648 131C620 136.5 622.5 141.5 618 161C614.5 141.5 614 134.5 588 131C612 129 614 128 618 101C622.5 127.5 620 129.5 648 131Z" fill="#D83482"/>
<path d="M648 882C620 876.683 622.5 871.85 618 853C614.5 871.85 614 878.617 588 882C612 883.933 614 884.9 618 911C622.5 885.383 620 883.45 648 882Z" fill="#D83482"/>
<path d="M433 131C405 136.5 407.5 141.5 403 161C399.5 141.5 399 134.5 373 131C397 129 399 128 403 101C407.5 127.5 405 129.5 433 131Z" fill="#D83482"/>
<path d="M433 882C405 876.683 407.5 871.85 403 853C399.5 871.85 399 878.617 373 882C397 883.933 399 884.9 403 911C407.5 885.383 405 883.45 433 882Z" fill="#D83482"/>
<path d="M332 61C304 66.5 306.5 71.5 302 91C298.5 71.5 298 64.5 272 61C296 59 298 58 302 31C306.5 57.5 304 59.5 332 61Z" fill="#D83482"/>
<path d="M332 950.5C304 945.092 306.5 940.175 302 921C298.5 940.175 298 947.058 272 950.5C296 952.467 298 953.45 302 980C306.5 953.942 304 951.975 332 950.5Z" fill="#D83482"/>
<path d="M552 61C524 66.5 526.5 71.5 522 91C518.5 71.5 518 64.5 492 61C516 59 518 58 522 31C526.5 57.5 524 59.5 552 61Z" fill="#D83482"/>
<path d="M552 950.5C524 945.092 526.5 940.175 522 921C518.5 940.175 518 947.058 492 950.5C516 952.467 518 953.45 522 980C526.5 953.942 524 951.975 552 950.5Z" fill="#D83482"/>
<defs>
<linearGradient id="paint0_linear_17_201" x1="754.5" y1="0" x2="754.5" y2="1024" gradientUnits="userSpaceOnUse">
<stop stop-color="#4A0080" stop-opacity="0.52"/>
<stop offset="1" stop-color="#1C0152" stop-opacity="0"/>
</linearGradient>
<linearGradient id="paint1_linear_17_201" x1="402.5" y1="1024" x2="402.5" y2="0" gradientUnits="userSpaceOnUse">
<stop stop-color="#1C0152" stop-opacity="0.1"/>
<stop offset="1" stop-color="#1C0152" stop-opacity="0"/>
</linearGradient>
<linearGradient id="paint2_linear_17_201" x1="83.4729" y1="0" x2="83.4729" y2="1024" gradientUnits="userSpaceOnUse">
<stop stop-color="#4A0080"/>
<stop offset="1" stop-color="#1C0152" stop-opacity="0"/>
</linearGradient>
</defs>
</svg>
