<svg width="408" height="86" viewBox="0 0 408 86" fill="none" xmlns="http://www.w3.org/2000/svg">
<g filter="url(#filter0_d_17_769)">
<path d="M3.09586 50.7C2.30253 50.7 1.67253 50.4667 1.20586 50C0.739193 49.4867 0.50586 48.7867 0.50586 47.9V16.26C0.50586 11.3133 1.90586 7.41667 4.70586 4.57C7.50586 1.72333 11.3559 0.299997 16.2559 0.299997C19.1025 0.299997 21.7159 1.04666 24.0959 2.54C26.5225 3.98667 28.3425 5.92333 29.5559 8.35C30.7692 5.87667 32.5425 3.91667 34.8759 2.47C37.2559 1.02333 39.9159 0.299997 42.8559 0.299997C47.7559 0.299997 51.6059 1.72333 54.4059 4.57C57.2059 7.37 58.6059 11.2667 58.6059 16.26V47.9C58.6059 48.7867 58.3492 49.4867 57.8359 50C57.3692 50.4667 56.7392 50.7 55.9459 50.7C55.1059 50.7 54.4525 50.4667 53.9859 50C53.5659 49.4867 53.3559 48.7867 53.3559 47.9V16.26C53.3559 12.5733 52.5159 9.75 50.8359 7.79C49.2025 5.83 46.4959 4.85 42.7159 4.85C39.4025 4.85 36.8125 5.87666 34.9459 7.93C33.0792 9.93667 32.1459 12.7133 32.1459 16.26V47.9C32.1459 48.7867 31.9125 49.4867 31.4459 50C30.9792 50.4667 30.3492 50.7 29.5559 50.7C28.7625 50.7 28.1325 50.4667 27.6659 50C27.2459 49.4867 27.0359 48.7867 27.0359 47.9V16.26C27.0359 12.8067 26.0559 10.0533 24.0959 8C22.1359 5.9 19.5692 4.85 16.3959 4.85C12.6159 4.85 9.88586 5.83 8.20586 7.79C6.57253 9.75 5.75586 12.5733 5.75586 16.26V47.9C5.75586 48.7867 5.52253 49.4867 5.05586 50C4.58919 50.4667 3.93586 50.7 3.09586 50.7ZM84.4687 67.5C81.0153 67.5 77.9353 66.9867 75.2287 65.96C72.522 64.9333 70.5387 63.5333 69.2787 61.76C68.952 61.2933 68.7887 60.8267 68.7887 60.36C68.7887 59.6133 69.162 58.96 69.9087 58.4C70.1887 58.1667 70.6087 58.05 71.1687 58.05C71.962 58.05 72.7087 58.4233 73.4087 59.17C74.4353 60.3833 75.9287 61.34 77.8887 62.04C79.8953 62.7867 82.0187 63.16 84.2587 63.16C88.4587 63.16 91.772 61.9 94.1987 59.38C96.672 56.86 97.9087 53.4533 97.9087 49.16V44.4C96.462 46.3133 94.6187 47.7833 92.3787 48.81C90.1387 49.79 87.6653 50.28 84.9587 50.28C79.2653 50.28 74.8087 48.67 71.5887 45.45C68.4153 42.1833 66.8287 37.6567 66.8287 31.87V17.59C66.8287 16.89 67.0853 16.3067 67.5987 15.84C68.112 15.3267 68.742 15.07 69.4887 15.07C70.2353 15.07 70.842 15.3267 71.3087 15.84C71.822 16.3067 72.0787 16.89 72.0787 17.59V31.87C72.0787 36.35 73.1987 39.85 75.4387 42.37C77.7253 44.8433 80.8987 46.08 84.9587 46.08C88.972 46.08 92.0753 44.89 94.2687 42.51C96.462 40.13 97.5587 36.7467 97.5587 32.36V18.29C97.5587 17.2633 97.792 16.47 98.2587 15.91C98.772 15.3033 99.472 15 100.359 15C101.199 15 101.852 15.3033 102.319 15.91C102.832 16.47 103.089 17.2633 103.089 18.29V48.81C103.089 52.4967 102.295 55.74 100.709 58.54C99.1687 61.3867 96.9987 63.58 94.1987 65.12C91.3987 66.7067 88.1553 67.5 84.4687 67.5ZM133.187 50.7C129.034 50.7 125.417 49.8833 122.337 48.25C119.304 46.6167 116.97 44.26 115.337 41.18C113.704 38.1 112.887 34.4367 112.887 30.19V3.1C112.887 2.21333 113.12 1.53666 113.587 1.07C114.054 0.556663 114.684 0.299997 115.477 0.299997C116.317 0.299997 116.97 0.556663 117.437 1.07C117.904 1.53666 118.137 2.21333 118.137 3.1V30.4C118.137 35.44 119.467 39.3367 122.127 42.09C124.787 44.8433 128.52 46.22 133.327 46.22C138.18 46.22 141.96 44.8433 144.667 42.09C147.42 39.29 148.797 35.3933 148.797 30.4V3.1C148.797 2.21333 149.03 1.53666 149.497 1.07C150.01 0.556663 150.664 0.299997 151.457 0.299997C152.297 0.299997 152.927 0.556663 153.347 1.07C153.814 1.53666 154.047 2.21333 154.047 3.1V30.19C154.047 34.2967 153.207 37.9133 151.527 41.04C149.847 44.12 147.42 46.5 144.247 48.18C141.12 49.86 137.434 50.7 133.187 50.7ZM166.808 50.7C166.015 50.7 165.385 50.4667 164.918 50C164.498 49.4867 164.288 48.7867 164.288 47.9V17.8C164.288 16.9133 164.498 16.2367 164.918 15.77C165.338 15.2567 165.968 15 166.808 15C167.602 15 168.208 15.2567 168.628 15.77C169.095 16.2367 169.328 16.9133 169.328 17.8V21.93C171.055 19.6433 173.132 17.9167 175.558 16.75C178.032 15.5833 180.738 15 183.678 15C188.112 15 191.518 16.2367 193.898 18.71C196.325 21.1833 197.538 24.73 197.538 29.35V47.9C197.538 48.7867 197.305 49.4867 196.838 50C196.372 50.4667 195.742 50.7 194.948 50.7C194.108 50.7 193.478 50.4667 193.058 50C192.638 49.4867 192.428 48.7867 192.428 47.9V29.35C192.428 22.7233 189.302 19.41 183.048 19.41C178.942 19.41 175.628 20.6233 173.108 23.05C170.635 25.4767 169.398 28.6967 169.398 32.71V47.9C169.398 48.74 169.165 49.4167 168.698 49.93C168.278 50.4433 167.648 50.7 166.808 50.7ZM210.791 7.58C209.765 7.58 208.878 7.25333 208.131 6.6C207.431 5.9 207.081 5.06 207.081 4.08C207.081 3.1 207.431 2.26 208.131 1.56C208.878 0.859998 209.765 0.509999 210.791 0.509999C211.818 0.509999 212.705 0.883331 213.451 1.63C214.245 2.33 214.641 3.14666 214.641 4.08C214.641 5.01333 214.245 5.83 213.451 6.53C212.705 7.23 211.818 7.58 210.791 7.58ZM210.791 50.7C209.998 50.7 209.368 50.4667 208.901 50C208.481 49.4867 208.271 48.7867 208.271 47.9V17.8C208.271 16.9133 208.481 16.2367 208.901 15.77C209.368 15.2567 209.998 15 210.791 15C211.631 15 212.261 15.2567 212.681 15.77C213.148 16.2367 213.381 16.9133 213.381 17.8V47.9C213.381 48.7867 213.148 49.4867 212.681 50C212.261 50.4667 211.631 50.7 210.791 50.7ZM241.101 50.7C238.861 50.7 236.948 50.0233 235.361 48.67C233.821 47.3167 232.538 45.2167 231.511 42.37L222.831 18.36C222.738 17.9867 222.691 17.73 222.691 17.59C222.691 17.0767 222.855 16.61 223.181 16.19C223.508 15.7233 223.928 15.3967 224.441 15.21C224.675 15.1167 225.025 15.07 225.491 15.07C226.051 15.07 226.518 15.21 226.891 15.49C227.311 15.77 227.615 16.1667 227.801 16.68L236.621 40.97C237.368 42.9767 238.068 44.3767 238.721 45.17C239.375 45.9633 240.168 46.36 241.101 46.36C242.035 46.36 242.828 45.9867 243.481 45.24C244.181 44.4467 244.881 43.07 245.581 41.11L254.401 16.68C254.821 15.6067 255.591 15.07 256.711 15.07C257.551 15.07 258.228 15.3267 258.741 15.84C259.301 16.3067 259.581 16.89 259.581 17.59C259.581 17.73 259.535 17.9867 259.441 18.36L250.621 42.51C249.595 45.3567 248.311 47.4333 246.771 48.74C245.231 50.0467 243.341 50.7 241.101 50.7ZM281.515 50.7C275.448 50.7 270.758 49.1367 267.445 46.01C264.132 42.8833 262.475 38.45 262.475 32.71C262.475 27.2033 264.155 22.8867 267.515 19.76C270.875 16.5867 275.472 15 281.305 15C284.898 15 288.095 15.5833 290.895 16.75C293.695 17.87 295.865 19.48 297.405 21.58C298.992 23.6333 299.785 25.99 299.785 28.65C299.785 30.61 299.225 32.1267 298.105 33.2C297.032 34.2733 295.538 34.81 293.625 34.81H267.725C267.725 38.4033 268.938 41.2267 271.365 43.28C273.792 45.2867 277.175 46.29 281.515 46.29C284.175 46.29 286.462 46.01 288.375 45.45C290.288 44.8433 292.085 43.8867 293.765 42.58C294.652 41.8333 295.375 41.46 295.935 41.46C296.355 41.46 296.752 41.6467 297.125 42.02C297.778 42.58 298.105 43.1633 298.105 43.77C298.105 44.2367 297.825 44.75 297.265 45.31C295.352 47.13 293.112 48.4833 290.545 49.37C287.978 50.2567 284.968 50.7 281.515 50.7ZM292.085 30.68C292.925 30.68 293.555 30.5167 293.975 30.19C294.395 29.8167 294.605 29.1633 294.605 28.23C294.605 26.55 294.045 25.0333 292.925 23.68C291.805 22.3267 290.218 21.2767 288.165 20.53C286.158 19.7833 283.872 19.41 281.305 19.41C277.152 19.41 273.862 20.4367 271.435 22.49C269.055 24.4967 267.865 27.2267 267.865 30.68H292.085ZM310.295 50.7C309.501 50.7 308.871 50.4667 308.405 50C307.985 49.4867 307.775 48.7867 307.775 47.9V17.8C307.775 16.9133 307.985 16.2367 308.405 15.77C308.825 15.2567 309.455 15 310.295 15C311.088 15 311.695 15.2567 312.115 15.77C312.581 16.2367 312.815 16.9133 312.815 17.8V22C315.988 17.8 320.375 15.7 325.975 15.7H327.725C328.611 15.7 329.311 15.91 329.825 16.33C330.338 16.7033 330.595 17.24 330.595 17.94C330.595 18.64 330.338 19.1767 329.825 19.55C329.311 19.9233 328.611 20.11 327.725 20.11H325.765C321.798 20.11 318.648 21.2533 316.315 23.54C314.028 25.78 312.885 28.8367 312.885 32.71V47.9C312.885 48.74 312.651 49.4167 312.185 49.93C311.765 50.4433 311.135 50.7 310.295 50.7ZM351.052 50.7C347.786 50.7 344.706 50.0933 341.812 48.88C338.919 47.62 336.632 45.8933 334.952 43.7C334.626 43.2333 334.462 42.7667 334.462 42.3C334.462 41.8333 334.579 41.4367 334.812 41.11C335.092 40.7367 335.442 40.4567 335.862 40.27C336.236 40.13 336.539 40.06 336.772 40.06C337.192 40.06 337.542 40.1767 337.822 40.41C338.149 40.5967 338.522 40.9233 338.942 41.39C341.976 44.61 346.012 46.22 351.052 46.22C353.479 46.22 355.439 45.8 356.932 44.96C358.426 44.12 359.172 42.9533 359.172 41.46C359.172 40.3867 358.869 39.5233 358.262 38.87C357.702 38.17 356.722 37.54 355.322 36.98C353.969 36.3733 351.729 35.5333 348.602 34.46C345.569 33.4333 343.189 32.4533 341.462 31.52C339.736 30.5867 338.452 29.5367 337.612 28.37C336.772 27.1567 336.352 25.6867 336.352 23.96C336.352 21.2533 337.519 19.0833 339.852 17.45C342.232 15.8167 345.382 15 349.302 15C352.196 15 354.879 15.5133 357.352 16.54C359.826 17.52 361.692 18.85 362.952 20.53C363.326 21.0433 363.512 21.5333 363.512 22C363.512 22.7 363.139 23.26 362.392 23.68C361.926 23.96 361.459 24.1 360.992 24.1C360.199 24.1 359.452 23.75 358.752 23.05C357.539 21.8367 356.209 20.95 354.762 20.39C353.316 19.7833 351.472 19.48 349.232 19.48C346.759 19.48 344.869 19.8767 343.562 20.67C342.256 21.4633 341.602 22.5833 341.602 24.03C341.602 25.1033 341.859 25.9667 342.372 26.62C342.932 27.2267 343.796 27.7867 344.962 28.3C346.176 28.7667 348.276 29.49 351.262 30.47C354.622 31.59 357.212 32.6633 359.032 33.69C360.899 34.67 362.229 35.7667 363.022 36.98C363.862 38.1933 364.282 39.6867 364.282 41.46C364.282 44.26 363.046 46.5 360.572 48.18C358.146 49.86 354.972 50.7 351.052 50.7ZM389.454 50.7C383.388 50.7 378.698 49.1367 375.384 46.01C372.071 42.8833 370.414 38.45 370.414 32.71C370.414 27.2033 372.094 22.8867 375.454 19.76C378.814 16.5867 383.411 15 389.244 15C392.838 15 396.034 15.5833 398.834 16.75C401.634 17.87 403.804 19.48 405.344 21.58C406.931 23.6333 407.724 25.99 407.724 28.65C407.724 30.61 407.164 32.1267 406.044 33.2C404.971 34.2733 403.478 34.81 401.564 34.81H375.664C375.664 38.4033 376.878 41.2267 379.304 43.28C381.731 45.2867 385.114 46.29 389.454 46.29C392.114 46.29 394.401 46.01 396.314 45.45C398.228 44.8433 400.024 43.8867 401.704 42.58C402.591 41.8333 403.314 41.46 403.874 41.46C404.294 41.46 404.691 41.6467 405.064 42.02C405.718 42.58 406.044 43.1633 406.044 43.77C406.044 44.2367 405.764 44.75 405.204 45.31C403.291 47.13 401.051 48.4833 398.484 49.37C395.918 50.2567 392.908 50.7 389.454 50.7ZM400.024 30.68C400.864 30.68 401.494 30.5167 401.914 30.19C402.334 29.8167 402.544 29.1633 402.544 28.23C402.544 26.55 401.984 25.0333 400.864 23.68C399.744 22.3267 398.158 21.2767 396.104 20.53C394.098 19.7833 391.811 19.41 389.244 19.41C385.091 19.41 381.801 20.4367 379.374 22.49C376.994 24.4967 375.804 27.2267 375.804 30.68H400.024Z" fill="white"/>
</g>
<defs>
<filter id="filter0_d_17_769" x="0.505859" y="0.300049" width="407.219" height="85.2" filterUnits="userSpaceOnUse" color-interpolation-filters="sRGB">
<feFlood flood-opacity="0" result="BackgroundImageFix"/>
<feColorMatrix in="SourceAlpha" type="matrix" values="0 0 0 0 0 0 0 0 0 0 0 0 0 0 0 0 0 0 127 0" result="hardAlpha"/>
<feOffset dy="18"/>
<feComposite in2="hardAlpha" operator="out"/>
<feColorMatrix type="matrix" values="0 0 0 0 0.160784 0 0 0 0 0.00392157 0 0 0 0 0.372549 0 0 0 1 0"/>
<feBlend mode="normal" in2="BackgroundImageFix" result="effect1_dropShadow_17_769"/>
<feBlend mode="normal" in="SourceGraphic" in2="effect1_dropShadow_17_769" result="shape"/>
</filter>
</defs>
</svg>
