<svg width="222" height="210" viewBox="0 0 222 210" fill="none" xmlns="http://www.w3.org/2000/svg">
<ellipse cx="116.787" cy="105" rx="47.346" ry="47.25" fill="#1D0153"/>
<g filter="url(#filter0_i_19_261)">
<ellipse cx="116.787" cy="194.25" rx="15.782" ry="15.75" fill="#951853"/>
</g>
<g filter="url(#filter1_i_19_261)">
<ellipse cx="206.218" cy="105" rx="15.782" ry="15.75" fill="#E584AA"/>
</g>
<g filter="url(#filter2_i_19_261)">
<ellipse cx="179.915" cy="42" rx="15.782" ry="15.75" fill="#951853"/>
</g>
<g filter="url(#filter3_i_19_261)">
<ellipse cx="179.915" cy="168" rx="15.782" ry="15.75" fill="#484970"/>
</g>
<g filter="url(#filter4_i_19_261)">
<ellipse cx="53.6589" cy="42" rx="15.782" ry="15.75" fill="#E584AA"/>
</g>
<g filter="url(#filter5_i_19_261)">
<ellipse cx="116.787" cy="15.75" rx="15.782" ry="15.75" fill="#1D0153"/>
</g>
<g filter="url(#filter6_i_19_261)">
<path fill-rule="evenodd" clip-rule="evenodd" d="M42.4968 109.456C42.9137 108.043 43.1374 106.548 43.1374 105C43.1374 104.943 43.1371 104.887 43.1365 104.83C44.2724 104.988 45.3374 105.163 46.3217 105.352C48.7344 105.815 50.5601 106.345 51.7348 106.878C51.9077 106.956 52.0572 107.031 52.1858 107.1C52.0572 107.169 51.9077 107.244 51.7348 107.322C50.5601 107.855 48.7344 108.385 46.3217 108.848C45.1547 109.072 43.8742 109.276 42.4968 109.456ZM13.0083 111.571C15.5037 116.988 20.9894 120.75 27.3554 120.75C33.7215 120.75 39.2072 116.988 41.7026 111.571C49.5086 110.646 54.7109 108.99 54.7109 107.1C54.7109 105.316 50.0724 103.739 42.9834 102.791C41.9069 95.1381 35.3202 89.25 27.3554 89.25C19.3907 89.25 12.804 95.1381 11.7275 102.791C4.63845 103.739 0 105.316 0 107.1C0 108.99 5.20233 110.646 13.0083 111.571ZM12.2141 109.456C10.8367 109.276 9.5562 109.072 8.38918 108.848C5.9765 108.385 4.15082 107.855 2.97612 107.322C2.80322 107.244 2.65367 107.169 2.52509 107.1C2.65367 107.031 2.80322 106.956 2.97612 106.878C4.15082 106.345 5.9765 105.815 8.38918 105.352C9.37349 105.163 10.4385 104.988 11.5744 104.83C11.5738 104.887 11.5735 104.943 11.5735 105C11.5735 106.548 11.7972 108.043 12.2141 109.456ZM1.87621 106.65L1.87873 106.653C1.87696 106.651 1.87617 106.65 1.87621 106.65ZM1.87621 107.55C1.87617 107.55 1.87696 107.549 1.87873 107.547L1.87621 107.55Z" fill="#484970"/>
</g>
<g filter="url(#filter7_i_19_261)">
<path fill-rule="evenodd" clip-rule="evenodd" d="M68.7359 170.378C68.6869 170.701 68.6281 171.021 68.5597 171.337C69.8241 170.873 71.0398 170.39 72.179 169.899C74.608 168.852 76.6517 167.784 78.0713 166.806C78.7836 166.315 79.3025 165.872 79.6328 165.492C79.9823 165.091 80.0142 164.884 80.0142 164.85C80.0142 164.747 79.9818 164.619 79.7729 164.439C79.5412 164.239 79.148 164.03 78.5669 163.84C77.7577 163.576 76.7289 163.395 75.6064 163.277C75.9757 163.674 76.2275 164.2 76.2275 164.882C76.2275 165.569 75.8337 166.145 75.4436 166.565C75.0289 167.011 74.4633 167.447 73.8133 167.866C72.525 168.697 70.7541 169.559 68.7359 170.378ZM38.2299 173.197C37.814 172.009 37.5367 170.756 37.4174 169.457C36.8667 169.629 36.2407 169.842 35.6184 170.091C34.7283 170.448 33.8991 170.857 33.3095 171.294C32.8111 171.662 32.6363 171.935 32.5838 172.094C32.6106 172.114 32.6475 172.139 32.6973 172.169C32.9678 172.331 33.4339 172.507 34.1222 172.668C35.1758 172.915 36.5866 173.092 38.2299 173.197ZM39.1171 175.247C36.9987 175.153 35.0942 174.95 33.6658 174.615C32.9008 174.436 32.2019 174.203 31.6708 173.885C31.1658 173.583 30.564 173.045 30.564 172.2C30.564 172.15 30.5656 172.101 30.5687 172.052C30.252 172.254 29.9565 172.457 29.6889 172.662C29.2124 173.026 28.8598 173.367 28.6339 173.672C28.4239 173.955 28.3645 174.151 28.3565 174.271C28.3793 174.307 28.4526 174.394 28.6617 174.523C29.0348 174.754 29.6491 174.99 30.5215 175.203C32.2502 175.625 34.7174 175.892 37.5721 176.001C38.221 176.026 38.8873 176.043 39.5662 176.052C39.4089 175.789 39.2591 175.52 39.1171 175.247ZM68.9141 168.137C70.4657 167.469 71.7735 166.802 72.7289 166.186C73.3102 165.811 73.7228 165.478 73.9785 165.203C74.1716 164.995 74.2168 164.884 74.2263 164.86L74.2271 164.858C74.2221 164.723 74.1645 164.552 73.6969 164.36C73.1774 164.147 72.4037 164.038 71.5193 164.015C70.6569 163.993 69.7824 164.054 69.1154 164.122C68.8554 164.149 68.6299 164.176 68.4523 164.2C68.7544 165.417 68.9147 166.69 68.9147 168C68.9147 168.046 68.9145 168.091 68.9141 168.137ZM53.1327 183.75C48.2487 183.75 43.8829 181.536 40.988 178.059C39.7883 178.062 38.6167 178.043 37.4951 178C34.5898 177.888 31.968 177.614 30.0476 177.146C29.0955 176.914 28.2452 176.617 27.6099 176.224C26.9947 175.844 26.3555 175.223 26.3555 174.3C26.3555 173.606 26.6502 172.99 27.0265 172.482C27.4046 171.971 27.9151 171.5 28.4743 171.073C29.5932 170.218 31.0482 169.43 32.4529 168.768C33.8672 168.102 35.2756 167.542 36.3268 167.149C36.7471 166.992 37.1118 166.861 37.3989 166.761C38.0321 158.642 44.8345 152.25 53.1327 152.25C59.4162 152.25 64.8421 155.915 67.3813 161.219L67.4225 161.216C67.5258 161.209 67.6761 161.2 67.8667 161.189C68.2479 161.167 68.7908 161.14 69.4417 161.119C70.7407 161.077 72.4826 161.06 74.2329 161.161C75.9659 161.261 77.7796 161.48 79.1873 161.939C79.8885 162.168 80.5638 162.479 81.0801 162.925C81.6192 163.391 82.0142 164.035 82.0142 164.85C82.0142 165.604 81.6059 166.272 81.1414 166.805C80.6577 167.361 79.9888 167.914 79.2059 168.453C77.6351 169.535 75.4593 170.663 72.9709 171.736C71.3816 172.421 69.6493 173.09 67.8431 173.716C65.5502 179.589 59.8284 183.75 53.1327 183.75ZM28.3474 174.252C28.3478 174.252 28.3496 174.255 28.3514 174.262C28.3478 174.256 28.3469 174.252 28.3474 174.252ZM32.5192 172.035C32.5197 172.035 32.5229 172.038 32.5274 172.046C32.521 172.039 32.5187 172.035 32.5192 172.035Z" fill="#1D0153"/>
</g>
<defs>
<filter id="filter0_i_19_261" x="101.005" y="178.5" width="31.564" height="31.5" filterUnits="userSpaceOnUse" color-interpolation-filters="sRGB">
<feFlood flood-opacity="0" result="BackgroundImageFix"/>
<feBlend mode="normal" in="SourceGraphic" in2="BackgroundImageFix" result="shape"/>
<feColorMatrix in="SourceAlpha" type="matrix" values="0 0 0 0 0 0 0 0 0 0 0 0 0 0 0 0 0 0 127 0" result="hardAlpha"/>
<feOffset dx="5" dy="-3"/>
<feComposite in2="hardAlpha" operator="arithmetic" k2="-1" k3="1"/>
<feColorMatrix type="matrix" values="0 0 0 0 0.113725 0 0 0 0 0.00392157 0 0 0 0 0.32549 0 0 0 1 0"/>
<feBlend mode="normal" in2="shape" result="effect1_innerShadow_19_261"/>
</filter>
<filter id="filter1_i_19_261" x="190.436" y="89.25" width="31.564" height="31.5" filterUnits="userSpaceOnUse" color-interpolation-filters="sRGB">
<feFlood flood-opacity="0" result="BackgroundImageFix"/>
<feBlend mode="normal" in="SourceGraphic" in2="BackgroundImageFix" result="shape"/>
<feColorMatrix in="SourceAlpha" type="matrix" values="0 0 0 0 0 0 0 0 0 0 0 0 0 0 0 0 0 0 127 0" result="hardAlpha"/>
<feOffset dx="5" dy="-3"/>
<feComposite in2="hardAlpha" operator="arithmetic" k2="-1" k3="1"/>
<feColorMatrix type="matrix" values="0 0 0 0 0.282353 0 0 0 0 0.286275 0 0 0 0 0.439216 0 0 0 1 0"/>
<feBlend mode="normal" in2="shape" result="effect1_innerShadow_19_261"/>
</filter>
<filter id="filter2_i_19_261" x="164.133" y="26.25" width="31.564" height="31.5" filterUnits="userSpaceOnUse" color-interpolation-filters="sRGB">
<feFlood flood-opacity="0" result="BackgroundImageFix"/>
<feBlend mode="normal" in="SourceGraphic" in2="BackgroundImageFix" result="shape"/>
<feColorMatrix in="SourceAlpha" type="matrix" values="0 0 0 0 0 0 0 0 0 0 0 0 0 0 0 0 0 0 127 0" result="hardAlpha"/>
<feOffset dx="5" dy="-3"/>
<feComposite in2="hardAlpha" operator="arithmetic" k2="-1" k3="1"/>
<feColorMatrix type="matrix" values="0 0 0 0 0.898039 0 0 0 0 0.517647 0 0 0 0 0.666667 0 0 0 1 0"/>
<feBlend mode="normal" in2="shape" result="effect1_innerShadow_19_261"/>
</filter>
<filter id="filter3_i_19_261" x="164.133" y="152.25" width="31.564" height="31.5" filterUnits="userSpaceOnUse" color-interpolation-filters="sRGB">
<feFlood flood-opacity="0" result="BackgroundImageFix"/>
<feBlend mode="normal" in="SourceGraphic" in2="BackgroundImageFix" result="shape"/>
<feColorMatrix in="SourceAlpha" type="matrix" values="0 0 0 0 0 0 0 0 0 0 0 0 0 0 0 0 0 0 127 0" result="hardAlpha"/>
<feOffset dx="5" dy="-3"/>
<feComposite in2="hardAlpha" operator="arithmetic" k2="-1" k3="1"/>
<feColorMatrix type="matrix" values="0 0 0 0 0.584314 0 0 0 0 0.0941176 0 0 0 0 0.32549 0 0 0 1 0"/>
<feBlend mode="normal" in2="shape" result="effect1_innerShadow_19_261"/>
</filter>
<filter id="filter4_i_19_261" x="37.877" y="26.25" width="31.564" height="31.5" filterUnits="userSpaceOnUse" color-interpolation-filters="sRGB">
<feFlood flood-opacity="0" result="BackgroundImageFix"/>
<feBlend mode="normal" in="SourceGraphic" in2="BackgroundImageFix" result="shape"/>
<feColorMatrix in="SourceAlpha" type="matrix" values="0 0 0 0 0 0 0 0 0 0 0 0 0 0 0 0 0 0 127 0" result="hardAlpha"/>
<feOffset dx="5" dy="-3"/>
<feComposite in2="hardAlpha" operator="arithmetic" k2="-1" k3="1"/>
<feColorMatrix type="matrix" values="0 0 0 0 0.113725 0 0 0 0 0.00392157 0 0 0 0 0.32549 0 0 0 1 0"/>
<feBlend mode="normal" in2="shape" result="effect1_innerShadow_19_261"/>
</filter>
<filter id="filter5_i_19_261" x="101.005" y="0" width="31.564" height="31.5" filterUnits="userSpaceOnUse" color-interpolation-filters="sRGB">
<feFlood flood-opacity="0" result="BackgroundImageFix"/>
<feBlend mode="normal" in="SourceGraphic" in2="BackgroundImageFix" result="shape"/>
<feColorMatrix in="SourceAlpha" type="matrix" values="0 0 0 0 0 0 0 0 0 0 0 0 0 0 0 0 0 0 127 0" result="hardAlpha"/>
<feOffset dx="5" dy="-3"/>
<feComposite in2="hardAlpha" operator="arithmetic" k2="-1" k3="1"/>
<feColorMatrix type="matrix" values="0 0 0 0 0.584314 0 0 0 0 0.0941176 0 0 0 0 0.32549 0 0 0 1 0"/>
<feBlend mode="normal" in2="shape" result="effect1_innerShadow_19_261"/>
</filter>
<filter id="filter6_i_19_261" x="0" y="89.25" width="54.7109" height="31.5" filterUnits="userSpaceOnUse" color-interpolation-filters="sRGB">
<feFlood flood-opacity="0" result="BackgroundImageFix"/>
<feBlend mode="normal" in="SourceGraphic" in2="BackgroundImageFix" result="shape"/>
<feColorMatrix in="SourceAlpha" type="matrix" values="0 0 0 0 0 0 0 0 0 0 0 0 0 0 0 0 0 0 127 0" result="hardAlpha"/>
<feOffset dx="2" dy="-2"/>
<feComposite in2="hardAlpha" operator="arithmetic" k2="-1" k3="1"/>
<feColorMatrix type="matrix" values="0 0 0 0 0.898039 0 0 0 0 0.517647 0 0 0 0 0.666667 0 0 0 1 0"/>
<feBlend mode="normal" in2="shape" result="effect1_innerShadow_19_261"/>
</filter>
<filter id="filter7_i_19_261" x="26.3555" y="152.25" width="55.6587" height="31.5" filterUnits="userSpaceOnUse" color-interpolation-filters="sRGB">
<feFlood flood-opacity="0" result="BackgroundImageFix"/>
<feBlend mode="normal" in="SourceGraphic" in2="BackgroundImageFix" result="shape"/>
<feColorMatrix in="SourceAlpha" type="matrix" values="0 0 0 0 0 0 0 0 0 0 0 0 0 0 0 0 0 0 127 0" result="hardAlpha"/>
<feOffset dx="3" dy="-1"/>
<feComposite in2="hardAlpha" operator="arithmetic" k2="-1" k3="1"/>
<feColorMatrix type="matrix" values="0 0 0 0 0.282353 0 0 0 0 0.286275 0 0 0 0 0.439216 0 0 0 1 0"/>
<feBlend mode="normal" in2="shape" result="effect1_innerShadow_19_261"/>
</filter>
</defs>
</svg>
